<?xml version="1.0" encoding="UTF-8"?>
<svg width="800" height="600" viewBox="0 0 800 600" fill="none" xmlns="http://www.w3.org/2000/svg">
  <!-- Background -->
  <rect width="800" height="600" fill="#F7FEF9"/>
  
  <!-- Sun -->
  <circle cx="700" cy="100" r="60" fill="#166534" opacity="0.1"/>
  
  <!-- Ground -->
  <path d="M0 450 L800 450" stroke="#166534" stroke-width="4"/>
  
  <!-- Tractor -->
  <g transform="translate(200, 250) scale(3)">
    <!-- Tractor body -->
    <path d="M14 14H20C21 14 22 15 22 16V18H14V14Z" stroke="#166534" stroke-width="4" fill="#F7FEF9"/>
    <!-- Tractor wheels -->
    <circle cx="6" cy="18" r="3" stroke="#166534" stroke-width="4" fill="#F7FEF9"/>
    <circle cx="19" cy="18" r="2" stroke="#166534" stroke-width="4" fill="#F7FEF9"/>
    <!-- Tractor cabin -->
    <path d="M8 14V11C8 10 9 9 10 9H12L14 14H8Z" stroke="#166534" stroke-width="4" fill="#F7FEF9"/>
  </g>
  
  <!-- Farmer -->
  <g transform="translate(280, 280) scale(3)">
    <!-- Farmer figure -->
    <circle cx="10" cy="6" r="2" stroke="#166534" stroke-width="4" fill="#F7FEF9"/> <!-- head -->
    <path d="M8 8L7 11" stroke="#166534" stroke-width="4"/> <!-- arm -->
    <path d="M12 8L13 11" stroke="#166534" stroke-width="4"/> <!-- arm -->
    <path d="M10 8V11" stroke="#166534" stroke-width="4"/> <!-- body -->
  </g>
  
  <!-- Field lines in background -->
  <g opacity="0.1">
    <path d="M0 500 L800 500" stroke="#166534" stroke-width="2"/>
    <path d="M0 550 L800 550" stroke="#166534" stroke-width="2"/>
    <path d="M100 450 L100 600" stroke="#166534" stroke-width="2"/>
    <path d="M300 450 L300 600" stroke="#166534" stroke-width="2"/>
    <path d="M500 450 L500 600" stroke="#166534" stroke-width="2"/>
    <path d="M700 450 L700 600" stroke="#166534" stroke-width="2"/>
  </g>
</svg>